<svg width="1280" height="720" viewBox="0 0 1280 720" xmlns="http://www.w3.org/2000/svg" role="img" aria-label="Flypper Bird preview">
  <defs>
    <linearGradient id="sky" x1="0" y1="0" x2="0" y2="1">
      <stop offset="0%" stop-color="#8cd8ff"/>
      <stop offset="100%" stop-color="#c7f0ff"/>
    </linearGradient>
    <filter id="shadow" x="-20%" y="-20%" width="140%" height="140%">
      <feDropShadow dx="0" dy="8" stdDeviation="8" flood-color="#246" flood-opacity="0.25"/>
    </filter>
  </defs>

  <rect width="1280" height="720" fill="url(#sky)"/>
  <ellipse cx="220" cy="120" rx="95" ry="34" fill="#ffffff" opacity="0.9"/>
  <ellipse cx="1080" cy="170" rx="120" ry="38" fill="#ffffff" opacity="0.85"/>

  <rect x="0" y="640" width="1280" height="80" fill="#66b23f"/>
  <rect x="0" y="630" width="1280" height="14" fill="#86d35a"/>

  <g filter="url(#shadow)">
    <rect x="810" y="0" width="130" height="330" fill="#2ca24e"/>
    <rect x="792" y="300" width="166" height="30" rx="6" fill="#248b41"/>
    <rect x="810" y="470" width="130" height="250" fill="#2ca24e"/>
    <rect x="792" y="470" width="166" height="30" rx="6" fill="#248b41"/>

    <rect x="1060" y="0" width="130" height="250" fill="#2ca24e"/>
    <rect x="1042" y="220" width="166" height="30" rx="6" fill="#248b41"/>
    <rect x="1060" y="390" width="130" height="330" fill="#2ca24e"/>
    <rect x="1042" y="390" width="166" height="30" rx="6" fill="#248b41"/>
  </g>

  <g transform="translate(420 340)" filter="url(#shadow)">
    <circle cx="0" cy="0" r="52" fill="#ffd84d"/>
    <ellipse cx="-12" cy="-10" rx="24" ry="17" fill="#ffef96" opacity="0.8"/>
    <polygon points="34,0 94,20 34,35" fill="#ff9827"/>
    <circle cx="-16" cy="-16" r="12" fill="#fff"/>
    <circle cx="-12" cy="-14" r="5" fill="#222"/>
  </g>

  <text x="58" y="82" font-family="Verdana, Arial, sans-serif" font-size="52" font-weight="700" fill="#ffffff">FLYPPER BIRD</text>
  <text x="62" y="126" font-family="Verdana, Arial, sans-serif" font-size="26" fill="#1b4f72">Lobster language demo preview</text>
</svg>
